<svg width="61" height="64" viewBox="0 0 61 64" fill="none" xmlns="http://www.w3.org/2000/svg">
<rect width="60.8222" height="63.1579" rx="20" fill="white"/>
<path d="M18 26C18 23.2386 20.2386 21 23 21H37C39.7614 21 42 23.2386 42 26V40C42 42.7614 39.7614 45 37 45H23C20.2386 45 18 42.7614 18 40V26Z" fill="black"/>
<path d="M24.2106 34.0526L28.1247 38.1625" stroke="white"/>
<line x1="24.2106" y1="30.2369" x2="28.4211" y2="30.2369" stroke="white"/>
<line x1="30.5262" y1="35.7632" x2="35.7894" y2="35.7632" stroke="white"/>
<line x1="30.5262" y1="37.9737" x2="35.7894" y2="37.9737" stroke="white"/>
<line y1="-0.5" x2="5.67549" y2="-0.5" transform="matrix(0.68966 -0.724133 0.68966 0.724133 24.5066 38.4737)" stroke="white"/>
<line x1="30.5262" y1="30.2369" x2="35.7894" y2="30.2369" stroke="white"/>
<line x1="33.1316" y1="27.4211" x2="33.1316" y2="32.9474" stroke="white"/>
</svg>
