<svg width="45" height="47" viewBox="0 0 45 47" fill="none" xmlns="http://www.w3.org/2000/svg">
<ellipse cx="22.5" cy="23.5" rx="22.5" ry="23.5" fill="#151515"/>
<path d="M22.5 9C19.0625 9 16.25 12.6161 16.25 17.0357C16.25 21.2143 14.625 24.9911 12.0625 27.7232C10.7813 29.0893 10 31.0179 10 33.1071H35C35 31.0179 34.25 29.0893 32.9375 27.7232C30.375 24.9911 28.75 21.2143 28.75 17.0357C28.75 12.6161 25.9688 9 22.5 9ZM19.375 37.125C19.375 39.3348 20.7812 41.1429 22.5 41.1429C24.2188 41.1429 25.625 39.3348 25.625 37.125H19.375Z" fill="white"/>
</svg>
