<svg width="61" height="64" viewBox="0 0 61 64" fill="none" xmlns="http://www.w3.org/2000/svg">
<rect width="60.8222" height="63.1579" rx="20" fill="#19191B"/>
<path d="M19 18C19 16.8954 19.8954 16 21 16H29.0553H38.2878C39.3923 16 40.2878 16.8954 40.2878 18V47.1272C40.2878 47.4616 39.8232 47.5452 39.7066 47.2318L38.2121 43.2133C37.5631 41.4681 35.091 41.4788 34.457 43.2295L32.743 47.9632C32.6454 48.2327 32.2615 48.2249 32.1749 47.9517L30.9619 44.123C30.3722 42.2617 27.7384 42.2617 27.1487 44.123L25.9546 47.8919C25.8661 48.1711 25.4711 48.1711 25.3826 47.8919L24.2185 44.2176C23.626 42.3477 20.9757 42.3595 20.4 44.2347L19.5868 46.8833C19.4857 47.2126 19 47.1398 19 46.7953V18Z" fill="#D9D9D9"/>
<path d="M24.25 34.4124L24.2852 34.3722L24.25 34.4124ZM24.25 34.4124L24.2583 34.373L24.1233 35.0146L24.25 34.4124ZM24.6663 35.183C24.6491 34.9441 24.6994 34.703 24.8104 34.4931C25.0178 34.5976 25.1932 34.764 25.3123 34.9692C25.122 35.1035 24.8963 35.1782 24.6663 35.183ZM25.1713 34.0789L25.2224 34.0906L25.1713 34.0789Z" fill="black" stroke="black" stroke-width="3"/>
<path d="M24.831 33.4186C24.464 33.8313 24.4895 34.4757 24.8881 34.858C25.2867 35.2403 25.9074 35.2157 26.2744 34.803L24.831 33.4186ZM26.2744 34.803L37.5553 22.1206L36.1118 20.7362L24.831 33.4186L26.2744 34.803Z" fill="black"/>
</svg>
