<?xml version="1.0" standalone="no"?>
<svg id="walle5" width="62" height="64" viewBox="0 0 62 64" fill="none" xmlns="http://www.w3.org/2000/svg">
<rect x="0.603027" y="0.157898" width="60.8222" height="63.1579" rx="20" fill="#19191B" class="svg-elem-1"></rect>
<path d="M19 30.8571C19 28.0957 21.2386 25.8571 24 25.8571H38C40.7614 25.8571 43 28.0957 43 30.8571V38C43 40.7614 40.7614 43 38 43H24C21.2386 43 19 40.7614 19 38V30.8571Z" fill="#F7F4F7" class="svg-elem-2"></path>
<line x1="25.8572" y1="34.4328" x2="36.1429" y2="34.4328" stroke="black" class="svg-elem-3"></line>
<path d="M25.954 21.2924C26.3307 20.0263 27.6699 19.2791 28.9452 19.6233L27.7639 23.5928C27.5128 24.4368 26.6199 24.935 25.7698 24.7055C25.3447 24.5908 25.1019 24.1557 25.2275 23.7337L25.954 21.2924Z" fill="#F7F4F7" class="svg-elem-4"></path>
<path d="M29.1986 19.9307C29.1993 19.7323 29.3608 19.572 29.5592 19.5727L33.595 19.5868C36.326 19.5963 38.5315 21.818 38.521 24.5491C38.5206 24.6583 38.4317 24.7465 38.3224 24.7462L31.1802 24.7212C30.0756 24.7174 29.1836 23.8188 29.1879 22.7143L29.1986 19.9307Z" fill="#F7F4F7" class="svg-elem-5"></path>

<animate attributeType="XML" begin="mouseover"></animate>
</svg>
