<svg width="125" height="110" viewBox="0 0 125 110" fill="none" xmlns="http://www.w3.org/2000/svg">
<path d="M14.3556 104V95.2727H19.6227V96.2102H15.4125V99.1591H19.35V100.097H15.4125V103.062H19.6909V104H14.3556ZM22.1412 97.4545L23.7093 100.131L25.2775 97.4545H26.4366L24.323 100.727L26.4366 104H25.2775L23.7093 101.46L22.1412 104H20.9821L23.0616 100.727L20.9821 97.4545H22.1412ZM27.8716 106.455V97.4545H28.8432V98.4943H28.9625C29.0364 98.3807 29.1387 98.2358 29.2694 98.0597C29.4029 97.8807 29.5932 97.7216 29.8404 97.5824C30.0904 97.4403 30.4284 97.3693 30.8546 97.3693C31.4057 97.3693 31.8915 97.5071 32.312 97.7827C32.7324 98.0582 33.0605 98.4489 33.2963 98.9545C33.5321 99.4602 33.65 100.057 33.65 100.744C33.65 101.438 33.5321 102.038 33.2963 102.547C33.0605 103.053 32.7338 103.445 32.3162 103.723C31.8986 103.999 31.4171 104.136 30.8716 104.136C30.4512 104.136 30.1145 104.067 29.8617 103.928C29.6088 103.786 29.4142 103.625 29.2779 103.446C29.1415 103.264 29.0364 103.114 28.9625 102.994H28.8773V106.455H27.8716ZM28.8603 100.727C28.8603 101.222 28.9327 101.658 29.0776 102.036C29.2225 102.411 29.4341 102.705 29.7125 102.918C29.9909 103.128 30.3319 103.233 30.7353 103.233C31.1557 103.233 31.5066 103.122 31.7878 102.901C32.0719 102.676 32.285 102.375 32.427 101.997C32.5719 101.616 32.6444 101.193 32.6444 100.727C32.6444 100.267 32.5733 99.8523 32.4313 99.483C32.2921 99.1108 32.0804 98.8168 31.7963 98.6009C31.5151 98.3821 31.1614 98.2727 30.7353 98.2727C30.3262 98.2727 29.9824 98.3764 29.704 98.5838C29.4256 98.7884 29.2154 99.0753 29.0733 99.4446C28.9313 99.8111 28.8603 100.239 28.8603 100.727ZM37.9284 104.136C37.2978 104.136 36.7537 103.997 36.2963 103.719C35.8418 103.438 35.4909 103.045 35.2438 102.543C34.9995 102.037 34.8773 101.449 34.8773 100.778C34.8773 100.108 34.9995 99.517 35.2438 99.0057C35.4909 98.4915 35.8347 98.0909 36.275 97.804C36.7182 97.5142 37.2353 97.3693 37.8262 97.3693C38.1671 97.3693 38.5037 97.4261 38.8361 97.5398C39.1685 97.6534 39.4711 97.8381 39.7438 98.0938C40.0165 98.3466 40.2338 98.6818 40.3958 99.0994C40.5577 99.517 40.6387 100.031 40.6387 100.642V101.068H35.5932V100.199H39.6159C39.6159 99.8295 39.5421 99.5 39.3944 99.2102C39.2495 98.9205 39.0421 98.6918 38.7722 98.5241C38.5051 98.3565 38.1898 98.2727 37.8262 98.2727C37.4256 98.2727 37.079 98.3722 36.7864 98.571C36.4966 98.767 36.2736 99.0227 36.1174 99.3381C35.9611 99.6534 35.883 99.9915 35.883 100.352V100.932C35.883 101.426 35.9682 101.845 36.1387 102.189C36.312 102.53 36.552 102.79 36.8588 102.969C37.1657 103.145 37.5222 103.233 37.9284 103.233C38.1926 103.233 38.4313 103.196 38.6444 103.122C38.8603 103.045 39.0463 102.932 39.2026 102.781C39.3588 102.628 39.4796 102.437 39.5648 102.21L40.5364 102.483C40.4341 102.812 40.2623 103.102 40.0208 103.352C39.7793 103.599 39.481 103.793 39.1259 103.932C38.7708 104.068 38.3716 104.136 37.9284 104.136ZM43.1742 100.062V104H42.1685V97.4545H43.1401V98.4773H43.2253C43.3787 98.1449 43.6117 97.8778 43.9242 97.6761C44.2367 97.4716 44.6401 97.3693 45.1344 97.3693C45.5776 97.3693 45.9654 97.4602 46.2978 97.642C46.6301 97.821 46.8887 98.0938 47.0733 98.4602C47.258 98.8239 47.3503 99.2841 47.3503 99.8409V104H46.3446V99.9091C46.3446 99.3949 46.2111 98.9943 45.9441 98.7074C45.677 98.4176 45.3105 98.2727 44.8446 98.2727C44.5236 98.2727 44.2367 98.3423 43.9838 98.4815C43.7338 98.6207 43.5364 98.8239 43.3915 99.0909C43.2466 99.358 43.1742 99.6818 43.1742 100.062ZM53.8244 98.9205L52.921 99.1761C52.8642 99.0256 52.7804 98.8793 52.6696 98.7372C52.5616 98.5923 52.4139 98.473 52.2264 98.3793C52.0389 98.2855 51.7988 98.2386 51.5062 98.2386C51.1056 98.2386 50.7718 98.331 50.5048 98.5156C50.2406 98.6974 50.1085 98.929 50.1085 99.2102C50.1085 99.4602 50.1994 99.6577 50.3812 99.8026C50.563 99.9474 50.8471 100.068 51.2335 100.165L52.2051 100.403C52.7903 100.545 53.2264 100.763 53.5133 101.055C53.8002 101.345 53.9437 101.719 53.9437 102.176C53.9437 102.551 53.8358 102.886 53.6199 103.182C53.4068 103.477 53.1085 103.71 52.725 103.881C52.3414 104.051 51.8954 104.136 51.3869 104.136C50.7193 104.136 50.1667 103.991 49.7292 103.702C49.2917 103.412 49.0147 102.989 48.8983 102.432L49.8528 102.193C49.9437 102.545 50.1156 102.81 50.3684 102.986C50.6241 103.162 50.9579 103.25 51.3699 103.25C51.8386 103.25 52.2108 103.151 52.4863 102.952C52.7647 102.75 52.9039 102.509 52.9039 102.227C52.9039 102 52.8244 101.81 52.6653 101.656C52.5062 101.5 52.2619 101.384 51.9324 101.307L50.8414 101.051C50.242 100.909 49.8017 100.689 49.5204 100.391C49.242 100.089 49.1028 99.7131 49.1028 99.2614C49.1028 98.892 49.2065 98.5653 49.4139 98.2812C49.6241 97.9972 49.9096 97.7741 50.2704 97.6122C50.6341 97.4503 51.046 97.3693 51.5062 97.3693C52.1539 97.3693 52.6625 97.5114 53.0318 97.7955C53.4039 98.0795 53.6681 98.4545 53.8244 98.9205ZM58.2019 104.136C57.5712 104.136 57.0272 103.997 56.5698 103.719C56.1152 103.438 55.7644 103.045 55.5172 102.543C55.2729 102.037 55.1507 101.449 55.1507 100.778C55.1507 100.108 55.2729 99.517 55.5172 99.0057C55.7644 98.4915 56.1081 98.0909 56.5485 97.804C56.9917 97.5142 57.5087 97.3693 58.0996 97.3693C58.4405 97.3693 58.7772 97.4261 59.1096 97.5398C59.4419 97.6534 59.7445 97.8381 60.0172 98.0938C60.29 98.3466 60.5073 98.6818 60.6692 99.0994C60.8311 99.517 60.9121 100.031 60.9121 100.642V101.068H55.8667V100.199H59.8894C59.8894 99.8295 59.8155 99.5 59.6678 99.2102C59.5229 98.9205 59.3155 98.6918 59.0456 98.5241C58.7786 98.3565 58.4632 98.2727 58.0996 98.2727C57.699 98.2727 57.3525 98.3722 57.0598 98.571C56.7701 98.767 56.5471 99.0227 56.3908 99.3381C56.2346 99.6534 56.1564 99.9915 56.1564 100.352V100.932C56.1564 101.426 56.2417 101.845 56.4121 102.189C56.5854 102.53 56.8255 102.79 57.1323 102.969C57.4391 103.145 57.7956 103.233 58.2019 103.233C58.4661 103.233 58.7047 103.196 58.9178 103.122C59.1337 103.045 59.3198 102.932 59.476 102.781C59.6323 102.628 59.753 102.437 59.8382 102.21L60.8098 102.483C60.7076 102.812 60.5357 103.102 60.2942 103.352C60.0527 103.599 59.7544 103.793 59.3993 103.932C59.0442 104.068 58.6451 104.136 58.2019 104.136ZM66.3113 104H65.2033L68.4078 95.2727H69.4988L72.7033 104H71.5953L68.9874 96.6534H68.9192L66.3113 104ZM66.7203 100.591H71.1863V101.528H66.7203V100.591ZM74.932 100.062V104H73.9263V97.4545H74.8979V98.4773H74.9831C75.1365 98.1449 75.3695 97.8778 75.682 97.6761C75.9945 97.4716 76.3979 97.3693 76.8922 97.3693C77.3354 97.3693 77.7232 97.4602 78.0556 97.642C78.388 97.821 78.6465 98.0938 78.8311 98.4602C79.0158 98.8239 79.1081 99.2841 79.1081 99.8409V104H78.1025V99.9091C78.1025 99.3949 77.9689 98.9943 77.7019 98.7074C77.4348 98.4176 77.0684 98.2727 76.6025 98.2727C76.2814 98.2727 75.9945 98.3423 75.7417 98.4815C75.4917 98.6207 75.2942 98.8239 75.1493 99.0909C75.0044 99.358 74.932 99.6818 74.932 100.062ZM82.872 104.153C82.4572 104.153 82.0808 104.075 81.7427 103.919C81.4047 103.76 81.1362 103.531 80.9373 103.233C80.7385 102.932 80.639 102.568 80.639 102.142C80.639 101.767 80.7129 101.463 80.8606 101.23C81.0083 100.994 81.2058 100.81 81.4529 100.676C81.7001 100.543 81.9728 100.443 82.2711 100.378C82.5723 100.31 82.8748 100.256 83.1788 100.216C83.5765 100.165 83.899 100.126 84.1461 100.101C84.3961 100.072 84.5779 100.026 84.6916 99.9602C84.8081 99.8949 84.8663 99.7812 84.8663 99.6193V99.5852C84.8663 99.1648 84.7512 98.8381 84.5211 98.6051C84.2939 98.3722 83.9487 98.2557 83.4856 98.2557C83.0055 98.2557 82.6291 98.3608 82.3564 98.571C82.0836 98.7812 81.8919 99.0057 81.7811 99.2443L80.8265 98.9034C80.997 98.5057 81.2243 98.196 81.5083 97.9744C81.7953 97.75 82.1078 97.5937 82.4458 97.5057C82.7868 97.4148 83.122 97.3693 83.4515 97.3693C83.6618 97.3693 83.9032 97.3949 84.176 97.446C84.4515 97.4943 84.7172 97.5952 84.9728 97.7486C85.2314 97.902 85.4458 98.1335 85.6163 98.4432C85.7868 98.7528 85.872 99.1676 85.872 99.6875V104H84.8663V103.114H84.8152C84.747 103.256 84.6333 103.408 84.4743 103.57C84.3152 103.732 84.1035 103.869 83.8393 103.983C83.5751 104.097 83.2527 104.153 82.872 104.153ZM83.0254 103.25C83.4231 103.25 83.7583 103.172 84.0311 103.016C84.3066 102.859 84.514 102.658 84.6532 102.411C84.7953 102.163 84.8663 101.903 84.8663 101.631V100.71C84.8237 100.761 84.7299 100.808 84.585 100.851C84.443 100.891 84.2782 100.926 84.0907 100.957C83.9061 100.986 83.7257 101.011 83.5495 101.034C83.3762 101.054 83.2356 101.071 83.1277 101.085C82.8663 101.119 82.622 101.175 82.3947 101.251C82.1703 101.325 81.9885 101.437 81.8493 101.588C81.7129 101.736 81.6447 101.937 81.6447 102.193C81.6447 102.543 81.774 102.807 82.0325 102.986C82.2939 103.162 82.6248 103.25 83.0254 103.25ZM88.7132 95.2727V104H87.7076V95.2727H88.7132ZM91.2029 106.455C91.0325 106.455 90.8805 106.44 90.747 106.412C90.6135 106.386 90.5211 106.361 90.47 106.335L90.7257 105.449C90.97 105.511 91.1859 105.534 91.3734 105.517C91.5609 105.5 91.7271 105.416 91.872 105.266C92.0197 105.118 92.1547 104.878 92.2768 104.545L92.4643 104.034L90.0439 97.4545H91.1348L92.9416 102.67H93.0098L94.8166 97.4545H95.9075L93.1291 104.955C93.0041 105.293 92.8493 105.572 92.6646 105.794C92.4799 106.018 92.2654 106.185 92.0211 106.293C91.7797 106.401 91.5069 106.455 91.2029 106.455ZM101.871 98.9205L100.968 99.1761C100.911 99.0256 100.827 98.8793 100.716 98.7372C100.608 98.5923 100.461 98.473 100.273 98.3793C100.086 98.2855 99.8457 98.2386 99.5531 98.2386C99.1525 98.2386 98.8187 98.331 98.5517 98.5156C98.2875 98.6974 98.1554 98.929 98.1554 99.2102C98.1554 99.4602 98.2463 99.6577 98.4281 99.8026C98.6099 99.9474 98.894 100.068 99.2804 100.165L100.252 100.403C100.837 100.545 101.273 100.763 101.56 101.055C101.847 101.345 101.991 101.719 101.991 102.176C101.991 102.551 101.883 102.886 101.667 103.182C101.454 103.477 101.155 103.71 100.772 103.881C100.388 104.051 99.9423 104.136 99.4338 104.136C98.7662 104.136 98.2136 103.991 97.7761 103.702C97.3386 103.412 97.0616 102.989 96.9451 102.432L97.8997 102.193C97.9906 102.545 98.1625 102.81 98.4153 102.986C98.671 103.162 99.0048 103.25 99.4167 103.25C99.8855 103.25 100.258 103.151 100.533 102.952C100.812 102.75 100.951 102.509 100.951 102.227C100.951 102 100.871 101.81 100.712 101.656C100.553 101.5 100.309 101.384 99.9792 101.307L98.8883 101.051C98.2889 100.909 97.8485 100.689 97.5673 100.391C97.2889 100.089 97.1497 99.7131 97.1497 99.2614C97.1497 98.892 97.2534 98.5653 97.4608 98.2812C97.671 97.9972 97.9565 97.7741 98.3173 97.6122C98.6809 97.4503 99.0929 97.3693 99.5531 97.3693C100.201 97.3693 100.709 97.5114 101.079 97.7955C101.451 98.0795 101.715 98.4545 101.871 98.9205ZM103.504 104V97.4545H104.51V104H103.504ZM104.016 96.3636C103.82 96.3636 103.651 96.2969 103.509 96.1634C103.369 96.0298 103.3 95.8693 103.3 95.6818C103.3 95.4943 103.369 95.3338 103.509 95.2003C103.651 95.0668 103.82 95 104.016 95C104.212 95 104.379 95.0668 104.519 95.2003C104.661 95.3338 104.732 95.4943 104.732 95.6818C104.732 95.8693 104.661 96.0298 104.519 96.1634C104.379 96.2969 104.212 96.3636 104.016 96.3636ZM110.988 98.9205L110.085 99.1761C110.028 99.0256 109.944 98.8793 109.834 98.7372C109.726 98.5923 109.578 98.473 109.39 98.3793C109.203 98.2855 108.963 98.2386 108.67 98.2386C108.27 98.2386 107.936 98.331 107.669 98.5156C107.405 98.6974 107.273 98.929 107.273 99.2102C107.273 99.4602 107.363 99.6577 107.545 99.8026C107.727 99.9474 108.011 100.068 108.398 100.165L109.369 100.403C109.954 100.545 110.39 100.763 110.677 101.055C110.964 101.345 111.108 101.719 111.108 102.176C111.108 102.551 111 102.886 110.784 103.182C110.571 103.477 110.273 103.71 109.889 103.881C109.506 104.051 109.059 104.136 108.551 104.136C107.883 104.136 107.331 103.991 106.893 103.702C106.456 103.412 106.179 102.989 106.062 102.432L107.017 102.193C107.108 102.545 107.28 102.81 107.532 102.986C107.788 103.162 108.122 103.25 108.534 103.25C109.003 103.25 109.375 103.151 109.65 102.952C109.929 102.75 110.068 102.509 110.068 102.227C110.068 102 109.988 101.81 109.829 101.656C109.67 101.5 109.426 101.384 109.096 101.307L108.006 101.051C107.406 100.909 106.966 100.689 106.684 100.391C106.406 100.089 106.267 99.7131 106.267 99.2614C106.267 98.892 106.371 98.5653 106.578 98.2812C106.788 97.9972 107.074 97.7741 107.434 97.6122C107.798 97.4503 108.21 97.3693 108.67 97.3693C109.318 97.3693 109.827 97.5114 110.196 97.7955C110.568 98.0795 110.832 98.4545 110.988 98.9205Z" fill="black"/>
<rect x="33" width="60.8222" height="63.1579" rx="20" fill="#19191B"/>
<rect x="50.9918" y="19" width="24" height="24" rx="5" fill="#F7F4F7"/>
<rect x="55.7919" y="28.6" width="3.6" height="9.6" rx="1" fill="black"/>
<rect x="66.5919" y="32.2" width="3.6" height="6" rx="1" fill="black"/>
<rect x="61.1917" y="25" width="3.6" height="13.2" rx="1" fill="black"/>
</svg>
