<svg width="61" height="64" viewBox="0 0 61 64" fill="none" xmlns="http://www.w3.org/2000/svg">
<path d="M19.2601 31.3158C19.2601 28.5544 21.4987 26.3158 24.2601 26.3158H34.5342C37.2956 26.3158 39.5342 28.5544 39.5342 31.3158V37.1053C39.5342 39.8667 37.2956 42.1053 34.5342 42.1053H24.2601C21.4987 42.1053 19.2601 39.8667 19.2601 37.1053V31.3158Z" fill="#F7F4F7"/>
<line x1="25.0527" y1="34.1749" x2="33.7416" y2="34.1749" stroke="black"/>
<path d="M25.1755 21.9615C25.4711 20.8782 26.5841 20.257 27.6614 20.574L26.6363 24.3301C26.4392 25.0523 25.6972 25.4664 24.979 25.2551C24.6199 25.1494 24.4087 24.771 24.5072 24.4099L25.1755 21.9615Z" fill="#F7F4F7"/>
<path d="M27.8756 20.8298C27.8762 20.6622 28.0126 20.5268 28.1802 20.5275L31.2121 20.539C33.7276 20.5486 35.7595 22.5955 35.7507 25.111C35.7503 25.2116 35.6685 25.2928 35.5678 25.2924L29.86 25.2707C28.7554 25.2665 27.8632 24.3677 27.8671 23.2631L27.8756 20.8298Z" fill="#F7F4F7"/>
<rect width="60.8222" height="63.1579" rx="20" fill="#D9D9D9"/>
<path d="M18 23C18 20.2386 20.2386 18 23 18H37C39.7614 18 42 20.2386 42 23V37C42 39.7614 39.7614 42 37 42H23C20.2386 42 18 39.7614 18 37V23Z" fill="black"/>
<path d="M26.3319 31.9602C25.9161 31.5967 25.8737 30.965 26.2371 30.5492L32.1325 23.8055C32.496 23.3897 33.1278 23.3473 33.5436 23.7108L35.1616 25.1254C36.409 26.2158 36.5362 28.1111 35.4457 29.3585L32.183 33.0906C31.0926 34.338 29.1973 34.4652 27.9499 33.3747L26.3319 31.9602Z" fill="#D9D9D9"/>
<path d="M23.0527 33.7895H38.2106" stroke="#D9D9D9" stroke-linecap="round"/>
<path d="M29.4373 22.0867C30.0506 21.3873 31.1146 21.3174 31.8141 21.9306C32.1638 22.2372 32.1987 22.7693 31.8921 23.119L25.5077 30.4007C25.2011 30.7504 24.6691 30.7853 24.3194 30.4787C23.62 29.8655 23.5501 28.8014 24.1633 28.102L29.4373 22.0867Z" fill="#D9D9D9"/>
<path d="M29.3685 32.1316L30.8685 30.6316" stroke="black" stroke-width="0.2" stroke-linecap="round"/>
<path d="M30.8685 31.9119L31.9292 30.8513" stroke="black" stroke-width="0.2" stroke-linecap="round"/>
</svg>
